<?xml version="1.0" encoding="utf-8"?>
<!-- Generator: Adobe Illustrator 19.0.0, SVG Export Plug-In . SVG Version: 6.00 Build 0)  -->
<svg version="1.1" id="Layer_1" xmlns="http://www.w3.org/2000/svg" xmlns:xlink="http://www.w3.org/1999/xlink" x="0px" y="0px"
	 viewBox="0 0 306.4 55.6" style="enable-background:new 0 0 306.4 55.6;" xml:space="preserve">
<style type="text/css">
	.st0{fill:#0A0505;}
	.st1{fill:#E3AE26;}
	.st2{fill:#93251F;}
	.st3{fill:#141819;}
	.st4{fill:#313637;}
	.st5{fill:#E3AF28;}
	.st6{fill:#060403;}
	.st7{fill:#92221E;}
	.st8{fill:#202527;}
	.st9{fill:#DA9F2A;}
</style>
<g id="XMLID_2_">
	<path id="XMLID_186_" class="st0" d="M306.4,27.4c-0.9,2-1.5,4.1-3.6,5.4c-4.2,2.5-11.5,1.2-13.7-2.7c-0.7-1.2-0.9-2.5-0.9-3.8
		c0-4.9,0-9.8,0-14.7c0-4.6,1.5-6.7,5.8-8.1c0.4-0.1,1,0.1,1.1-0.5c0.9,0,1.8,0,2.7,0c0.4,0.7,1,0.3,1.5,0.4
		c3.5,0.5,6.7,2.4,6.9,6.8c0,5.3,0,10.6-0.1,15.9c0,0.4-0.1,0.8,0.4,0.9C306.4,27.1,306.4,27.3,306.4,27.4z M294.6,18.6
		c0,2.3,0,4.7,0,7c0,1.7,0.9,2.4,2.4,2.5c1.5,0.1,2.6-0.4,2.6-2.2c0-4.9,0-9.8,0-14.6c0-1.8-1.1-2.3-2.6-2.2
		c-1.6,0.1-2.4,0.8-2.4,2.5C294.6,13.9,294.6,16.3,294.6,18.6z"/>
	<path id="XMLID_183_" class="st1" d="M176.4,3c1,0.4,1.9,0.7,2.9,1.1c2.8,1.1,4.3,3.3,4.3,6.3c0.1,5.3,0.1,10.7,0,16
		c0,3.9-1.9,6.5-5.8,7.3c-3.2,0.6-6.5,0.8-9.5-1.3c-1.7-1.2-2.6-2.8-2.7-4.8c-0.2-6-0.3-11.9,0-17.9c0.1-3.2,2.6-5.6,6.3-6.3
		c0.3-0.1,0.8,0.1,1-0.4C174.1,3,175.3,3,176.4,3z M177.3,11.4c-0.1-1.8-1.3-2.3-2.9-2.2c-1.6,0.1-2.2,1.1-2.2,2.7
		c0.1,4.5,0.1,9.1,0,13.6c0,1.6,0.6,2.6,2.2,2.7c1.6,0.1,2.7-0.5,2.8-2.3c0.5-0.5,0.3-1.2,0.3-1.8c0-3.4,0-6.8,0-10.3
		C177.6,13,177.8,12.1,177.3,11.4z"/>
	<path id="XMLID_180_" class="st1" d="M138,27.5c0.2,2.9-2.4,5.8-6.1,6.4c-1.8,0.3-3.7,0.3-5.5,0c-3.7-0.5-6.2-3.4-6.3-7.2
		c-0.1-5.3-0.1-10.7,0-16c0.1-3.8,2.3-6.3,6.3-7.2c0.3-0.1,0.8,0.1,1-0.4c1.1,0,2.3,0,3.4,0c1.1,0.4,2.2,0.7,3.3,1.1
		c2.4,1.1,3.9,2.9,4,5.6C138,15.7,138,21.6,138,27.5z M126.5,18.4c0,2.3,0,4.7,0,7c0,1.7,0.9,2.6,2.5,2.7c1.7,0.1,2.6-0.8,2.7-2.5
		c0-4.7,0-9.4,0-14.1c0-1.7-0.9-2.5-2.6-2.5c-1.7,0.1-2.5,0.9-2.5,2.6C126.6,14,126.5,16.2,126.5,18.4z"/>
	<path id="XMLID_177_" class="st2" d="M39.2,3c1.1,0.3,2.2,0.5,3.3,0.9c2.9,1.1,4.7,3.5,4.7,6.6c0,5.3,0.1,10.5,0,15.8
		c0,4.3-2.7,7.1-6.9,7.5c-1.5,0.1-3.1,0.2-4.5-0.1c-4.3-0.7-6.4-3.3-6.5-7.7c0-4.7,0.1-9.4,0-14.1c-0.1-4.2,1.5-7.3,6-8.4
		c0.3-0.1,0.8,0,0.9-0.5C37.2,3,38.2,3,39.2,3z M35.7,18.5C35.7,18.5,35.7,18.5,35.7,18.5c0,2.4,0,4.8,0,7.2c0,1.6,0.8,2.4,2.5,2.4
		c1.5,0,2.7-0.4,2.7-2.2c0-4.9,0.1-9.8,0-14.6c0-1.8-1.2-2.3-2.8-2.3c-1.7,0.1-2.4,1-2.4,2.5C35.7,13.9,35.7,16.2,35.7,18.5z"/>
	<path id="XMLID_176_" class="st3" d="M117.4,47.6c-1.4-0.6-2.5-1.4-2.7-3c0-0.3-0.3-0.8,0.4-0.9c0.5-0.1,0.6,0.3,0.8,0.7
		c0.6,2,1.6,2.5,3.5,2c1-0.3,1.5-0.9,1.6-1.9c0.1-1.1-0.4-1.9-1.4-2.2c-0.9-0.3-1.8-0.4-2.7-0.7c-1.6-0.5-2.2-1.5-2-3
		c0.2-1.5,1.2-2.5,2.7-2.7c2.6-0.3,4.3,0.9,4.3,3c0,0.3,0.3,0.8-0.4,0.9c-0.6,0-0.5-0.4-0.6-0.8c-0.5-1.9-1.1-2.4-2.9-2.2
		c-1,0.1-1.8,0.6-2,1.7c-0.2,1.1,0.2,2,1.4,2.3c0.7,0.2,1.3,0.4,2,0.5c1.9,0.4,2.7,1.3,2.7,3c0,1.7-0.7,2.6-2.6,3.1
		c-0.1,0-0.2,0.2-0.3,0.3C118.6,47.6,118,47.6,117.4,47.6z"/>
	<path id="XMLID_173_" class="st3" d="M167.7,47.6c-0.2-1,0.5-1.1,1.2-1.2c2.1-0.4,3.3-1.7,4-3.8c-0.8,0-1.3,0.6-1.9,0.6
		c-2.2,0.1-3.8-1.1-3.9-3.3c-0.1-2.2,1.1-3.8,3.1-3.9c2.4-0.1,4,1.2,4.1,3.5c0.1,3.1-0.6,5.8-3.6,7.4c-0.7,0.4-1.4,0.5-2.1,0.8
		C168.3,47.6,168,47.6,167.7,47.6z M170.7,36.9c-1.5,0-2.5,1-2.5,2.7c0,1.7,0.9,2.7,2.5,2.7c1.6,0,2.7-1,2.7-2.5
		C173.3,38.1,172.2,36.9,170.7,36.9z"/>
	<path id="XMLID_172_" class="st3" d="M140.2,47.6c-2.1-1-2.7-2.9-2.7-5c0-1.4-0.1-2.8,0.3-4.1c0.6-1.9,2-2.8,4.3-2.5
		c1.6,0.2,2.5,1.3,2.7,3.2c0,0.4,0.4,0.9-0.4,1c-0.8,0.1-0.6-0.5-0.6-0.9c-0.2-1.8-1-2.5-2.7-2.4c-1.1,0.1-1.8,0.7-2.1,1.8
		c-0.6,2-0.6,4.1,0,6.2c0.4,1.3,1.3,1.9,2.6,1.8c1.3,0,2.1-0.7,2.3-2.1c0.1-0.5,0-0.9,0.7-0.8c0.7,0.1,0.3,0.6,0.3,0.9
		c0,1.8-1.3,2.4-2.8,3C141.4,47.6,140.8,47.6,140.2,47.6z"/>
	<path id="XMLID_171_" class="st4" d="M124.3,47.6c0-3.5,0-7,0-10.6c0-0.4-0.4-1.1,0.5-1.1c0.8,0,0.6,0.7,0.6,1.1c0,3.1,0,6.2,0,9.2
		c0,0.7-0.3,1-0.8,1.3C124.5,47.6,124.4,47.6,124.3,47.6z"/>
	<path id="XMLID_164_" class="st0" d="M204.9,16.7c0.4,5.2,0.6,10.3,0.5,15.5c0,1.1-0.4,1.4-1.4,1.3c-1.6-0.1-3.7,0.7-4.8-0.3
		c-1-0.9-0.3-3-0.3-4.6c0-7.7,0-15.4,0-23c0-1.4,0.2-2,1.8-1.9c4.7,0.1,4.6,0,6.3,4.5c1.6,4.2,3.2,8.3,5,12.8
		c-0.2-5.3-0.5-10.3-0.4-15.4c0-1.4,0.2-2,1.7-1.8c1.5,0.2,3.5-0.5,4.4,0.3c1,0.9,0.3,3,0.3,4.5c0,7.8,0,15.6,0,23.4
		c0,1.2-0.2,1.6-1.5,1.6c-4.7,0-4.7,0.1-6.4-4.3c-1.5-3.8-2.9-7.6-4.3-11.4C205.6,17.4,205.6,16.8,204.9,16.7z"/>
	<path id="XMLID_161_" class="st5" d="M160.7,17.1c-0.1,2-0.9,3.7-2.6,4.8c-0.7,0.5-0.7,0.8-0.4,1.5c1.3,2.9,2.4,5.9,3.7,8.9
		c0.4,1,0.3,1.3-0.8,1.3c-5.7,0.2-5.7,0.3-7.7-5c-0.6-1.5-1.1-3.1-1.7-4.6c-0.2-0.4-0.1-1.2-0.8-1.1c-0.7,0.1-0.5,0.8-0.5,1.2
		c0,2.6-0.1,5.2,0,7.8c0,1.2-0.3,1.6-1.6,1.6c-4.9,0-4.9,0.1-4.9-4.8c0-7.8,0-15.6,0-23.4c0-1.3,0.4-1.7,1.7-1.7
		c3,0.1,6.1,0,9.1,0.1c3.3,0,6.4,2,6.5,5.7C160.3,12,160.3,14.5,160.7,17.1z M149.8,13.4c0,0.6,0,1.3,0,1.9c0,2.5,0.1,2.6,2.7,2.3
		c1.3-0.1,1.8-0.8,1.8-2c0-1.3,0-2.6,0-4c0-2.1-0.5-2.4-2.7-2.6c-2.2-0.2-1.8,1.2-1.8,2.4C149.8,12.1,149.8,12.8,149.8,13.4z"/>
	<path id="XMLID_158_" class="st6" d="M284.3,33.5c-2.2,0-4.2-0.1-6.3,0c-1,0-1.1-0.6-1.4-1.2c-1-2.7-2.1-5.5-3.1-8.3
		c-0.2-0.5-0.2-1.1-1.2-1.3c0,3-0.1,5.9,0,8.9c0.1,1.4-0.2,2.1-1.8,1.9c-1.5-0.2-3.5,0.4-4.4-0.3c-1-0.8-0.3-2.9-0.3-4.4
		c0-7.8,0-15.6,0-23.4c0-1.3,0.2-1.9,1.7-1.8c2.8,0.2,5.7,0.1,8.6,0.1c4.1-0.1,7.3,2.5,7,7.2c-0.2,2.6,0.4,5.3-0.4,7.9
		c-0.4,1.2-0.9,2.3-2,2.8c-1.1,0.5-0.9,1.2-0.5,2.1C281.5,27,282.9,30.2,284.3,33.5z M272.4,13.3c0,1.1,0,2.2,0,3.2
		c0,0.4-0.1,0.9,0.5,1.1c1.8,0.8,3.7-0.5,3.7-2.4c0-1.2,0-2.4,0-3.6c0-2.2-0.3-2.3-2.5-2.6c-2.2-0.2-1.7,1.2-1.7,2.4
		C272.4,12.1,272.4,12.7,272.4,13.3z"/>
	<path id="XMLID_157_" class="st7" d="M5,33.5c0-9.9,0-19.8,0-29.7c1.6,0,3.3,0,4.9-0.1c1-0.1,1.3,0.3,1.3,1.3c-0.1,3.2,0,6.3,0,9.5
		c0,1.2,0.3,1.5,1.5,1.5c4.8,0,4.8,0.1,4.8-4.7c0-2.1,0.1-4.2,0-6.3c0-1.1,0.4-1.4,1.4-1.3c1.6,0.2,3.8-0.7,4.7,0.4
		c0.8,0.9,0.3,3,0.3,4.6c0,7.7,0,15.3,0,23c0,1.3-0.2,1.9-1.7,1.8c-4.7-0.1-4.7,0-4.7-4.7c0-2,0-3.9,0-5.9c0-1-0.3-1.3-1.3-1.3
		c-4.9-0.2-4.9-0.2-4.9,4.7c0,2,0,4.1,0,6.1c0,0.8-0.3,1.1-1.1,1.1C8.4,33.5,6.7,33.5,5,33.5z"/>
	<path id="XMLID_156_" class="st6" d="M259.5,10.5c-2.2-1.1-4.4-1.1-6.7-1c-2.1,0.1-2.9,0.9-2.9,2.9c0,4.3,0,8.6,0,12.9
		c0,2.1,2.3,3.4,4.1,2.4c0.6-0.3,0.4-0.9,0.4-1.3c0-2.5,0.1-5.1,0-7.6c0-1.1,0.3-1.3,1.4-1.4c4.9-0.1,4.9-0.1,4.9,4.7
		c0,2.7-0.1,5.5,0,8.2c0.1,1.4-0.4,2-1.7,2.4c-3.4,1.2-6.9,1.4-10.4,0.6c-3.3-0.8-5.2-3.3-5.2-6.7c0-5,0.1-10-0.1-15
		c-0.1-4.7,2.5-6.8,6-7.7c2.9-0.8,5.9-0.6,8.8,0c0.8,0.2,1.4,0.5,1.3,1.6C259.4,7,259.5,8.6,259.5,10.5z"/>
	<path id="XMLID_155_" class="st0" d="M223.7,18.5c0-4.4,0-8.8,0-13.1c0-1.1,0.1-1.7,1.5-1.7c4.1,0.1,8.3,0.1,12.4,0
		c1.1,0,1.4,0.3,1.4,1.4c0,4.1,0.1,4.1-3.9,4.1c-0.1,0-0.3,0-0.4,0c-1.4,0.1-3.5-0.7-4.2,0.4c-0.9,1.5-0.2,3.6-0.3,5.4
		c0,0.8,0.6,0.7,1.1,0.7c1.7,0,3.4-0.2,5.1,0c2.9,0.3,0.9,2.6,1.4,3.9c0.3,1,0.2,1.9-1.4,1.8c-1.6-0.2-3.3,0-4.9-0.1
		c-0.9,0-1.2,0.2-1.2,1.2c0.1,1.5,0.1,2.9,0,4.4c0,1,0.3,1.3,1.3,1.3c2.1-0.1,4.2,0,6.3,0c0.9,0,1.2,0.2,1.2,1.2
		c0.2,4.3,0.2,4.3-4.1,4.3c-3.1,0-6.2-0.1-9.3,0c-1.4,0-1.8-0.3-1.8-1.7C223.8,27.4,223.7,22.9,223.7,18.5z"/>
	<path id="XMLID_154_" class="st2" d="M72.4,18.5c0-4.4,0-8.8,0-13.1c0-1.2,0.2-1.6,1.5-1.6c4.1,0.1,8.1,0.1,12.2,0
		c1.1,0,1.5,0.2,1.5,1.5c0,4,0.1,4-3.9,4c-1.5,0-3.5-0.5-4.4,0.3c-1.1,0.9-0.2,3-0.4,4.5c-0.2,1.3,0.3,1.8,1.6,1.7
		c1.5-0.1,3,0,4.6,0c1-0.1,1.3,0.3,1.3,1.3c0.2,4.4,0.2,4.4-4.2,4.4c-3.3,0-3.3,0-3.3,3.4c0,3.5,0,3.5,3.6,3.5c0.4,0,0.8,0,1.1,0
		c4.3,0,4.3,0,4,4.3c-0.1,0.8-0.3,1.1-1.1,1.1c-4.4,0-8.8,0-13.1,0c-1.2,0-1-0.7-1-1.4C72.4,27.6,72.4,23,72.4,18.5z"/>
	<path id="XMLID_153_" class="st7" d="M56.4,21.4c0-3.6-0.1-7.1,0-10.7c0-1.3-0.4-1.6-1.6-1.6c-1.2,0-3,0.7-3.6-0.3
		c-0.6-1.1-0.2-2.8-0.2-4.3c0-0.8,0.4-0.8,1-0.8c5.1,0,10.1,0,15.2,0c0.7,0,1,0.2,1,1c-0.1,1.1-0.1,2.3,0,3.4c0,0.9-0.3,1-1.1,1.1
		c-1.4,0-3.3-0.6-4,0.3c-0.7,1-0.3,2.8-0.3,4.2c0,6.1,0,12.2,0,18.3c0,1.2-0.2,1.7-1.5,1.6c-1.6-0.2-3.8,0.7-4.7-0.4
		c-0.8-0.9-0.3-3-0.3-4.6C56.3,26.2,56.4,23.8,56.4,21.4z"/>
	<path id="XMLID_152_" class="st2" d="M92.2,18.4c0-4.4,0-8.9,0-13.3c0-1,0.2-1.4,1.3-1.4c5.1-0.1,5.1-0.1,5.1,4.9
		c0,5.8,0.1,11.7-0.1,17.5c0,1.8,0.6,2.2,2.2,2.1c1.6-0.1,3.2,0,4.8,0c0.9,0,1.1,0.3,1.2,1.2c0.2,4.2,0.2,4.2-3.9,4.2
		c-3,0-6.1-0.1-9.1,0c-1.3,0-1.6-0.4-1.5-1.6C92.2,27.4,92.2,22.9,92.2,18.4z"/>
	<path id="XMLID_151_" class="st8" d="M134.2,44.9c0-2.5,0-5,0-7.5c0-0.5-0.3-1.4,0.6-1.4c0.9,0,0.5,0.9,0.5,1.5c0,2.8,0,5.7,0,8.5
		c0,0.5,0.4,1.2-0.4,1.3c-0.8,0.2-1-0.5-1.3-1c-1.5-2.7-3-5.4-4.8-8.5c0,3.1,0,5.7,0,8.4c0,0.4,0.4,1.1-0.5,1.1
		c-0.7,0-0.4-0.7-0.4-1.1c0-3,0-6,0-9c0-0.4-0.4-1.1,0.4-1.3c0.7-0.2,0.9,0.5,1.1,0.9c1.5,2.7,3,5.4,4.5,8.1
		C134.1,44.9,134.2,44.9,134.2,44.9z"/>
	<path id="XMLID_150_" class="st3" d="M192.3,47.4c-2.3,0-4.6,0-6.9,0c-0.3-0.7,0.3-1,0.6-1.4c1.5-1.6,3.1-3.3,4.6-4.9
		c0.8-0.9,1.1-1.9,0.5-3c-0.6-1.1-1.7-1.3-2.9-1.1c-1.2,0.1-1.6,1.1-1.8,2.1c-0.1,0.4,0.1,1-0.6,0.9c-0.7-0.1-0.3-0.7-0.3-1.1
		c0-1.4,0.8-2.4,2.1-2.7c1.5-0.3,3.1-0.4,4.3,1c0.9,1.2,0.9,2.6,0.2,3.8c-0.5,0.9-1.3,1.6-2,2.4c-0.9,1-1.8,1.9-3,3.2
		c1.7,0,3.2,0,4.6,0C192.2,46.4,192.6,46.6,192.3,47.4z"/>
	<path id="XMLID_149_" class="st3" d="M153.3,47.3c-2.1,0-4.2,0-6.3,0c0-3.4,0-6.9,0-10.3c0-0.7,0.1-1.1,0.9-1c1.4,0.1,2.9,0,4.3,0
		c0.4,0,1-0.2,1,0.5c0,0.6-0.6,0.4-0.9,0.4c-0.5,0-1,0-1.5,0c-3,0-3.5,0.6-2.9,3.6c0.1,0.6,0.4,0.6,0.8,0.6c0.9,0,1.8,0,2.7,0
		c0.4,0,1.1-0.2,1,0.5c0,0.7-0.7,0.4-1.1,0.4c-0.8,0-1.7,0-2.5,0c-0.6,0-0.9,0.2-0.9,0.9c0,0.9,0,1.8,0,2.7c0,0.7,0.2,0.9,0.9,0.8
		c1.2,0,2.5,0,3.7,0C153.3,46.4,153.4,46.7,153.3,47.3z"/>
	<path id="XMLID_148_" class="st3" d="M180.1,36c0.1,0,0.3,0,0.4,0c3.3,0,3.4,0,2.1,3c-1,2.5-2,4.9-3,7.4c-0.2,0.5-0.5,1.3-1.2,0.9
		c-0.6-0.3,0.1-0.8,0.2-1.2c1-2.7,2.1-5.3,3.2-7.9c0.4-1,0.3-1.4-0.8-1.2c-0.3,0-0.7,0-1,0c-2.5,0-2.5,0-2.7,2.5
		c0,0.3,0.1,0.7-0.4,0.8c-0.7,0-0.5-0.5-0.5-0.8c-0.2-3.4-0.2-3.4,3.1-3.4C179.7,36,179.9,36,180.1,36z"/>
	<path id="XMLID_147_" class="st0" d="M165.3,47.3c-2.3,0-4.6,0-6.9,0c-0.3-1.1,0.6-1,1.1-0.9c1.6,0.3,1.9-0.4,1.8-1.9
		c-0.1-2,0-4.1,0-6.1c0-0.8-0.2-1-0.9-0.5c-0.4,0.3-0.9,0.6-1.4,0.9c-0.3,0.2-0.5,0.3-0.7-0.1c-0.3-0.4,0-0.5,0.2-0.7
		c1-0.7,1.9-1.4,3-2c0.9-0.5,0.8,0.2,0.8,0.8c0,2.6,0.1,5.3,0,7.9c-0.1,1.3,0.3,1.9,1.7,1.7C164.5,46.4,165.5,46,165.3,47.3z"/>
	<path id="XMLID_146_" class="st9" d="M138,27.5c0-5.9,0-11.8,0-17.7c0.1,0.1,0.2,0.2,0.2,0.3c0.3,5.7,0.3,11.4,0,17.1
		C138.2,27.3,138,27.4,138,27.5z"/>
	<path id="XMLID_145_" class="st9" d="M160.7,17.1c-0.4-2.5-0.4-5,0-7.6C160.9,12,160.9,14.5,160.7,17.1z"/>
	<path id="XMLID_142_" class="st9" d="M177.3,25.9c0-4.8,0-9.6,0-14.5c0.6,0.7,0.3,1.6,0.3,2.4c0,3.4,0,6.8,0,10.3
		C177.6,24.7,177.8,25.3,177.3,25.9z"/>
</g>
</svg>
