<?xml version="1.0" encoding="utf-8"?>
<!-- Generator: Adobe Illustrator 19.0.0, SVG Export Plug-In . SVG Version: 6.00 Build 0)  -->
<svg version="1.1" id="Layer_1" xmlns="http://www.w3.org/2000/svg" xmlns:xlink="http://www.w3.org/1999/xlink" x="0px" y="0px"
	 viewBox="0 0 595.3 841.9" style="enable-background:new 0 0 595.3 841.9;" xml:space="preserve">
<style type="text/css">
	.st0{fill:#0A0505;}
	.st1{fill:#E3AE26;}
	.st2{fill:#93251F;}
	.st3{fill:#141819;}
	.st4{fill:#313637;}
	.st5{fill:#F7F4F4;}
	.st6{fill:#E7CFCD;}
	.st7{fill:#8D7372;}
	.st8{fill:#DADDDF;}
	.st9{fill:#E3AF28;}
	.st10{fill:#060403;}
	.st11{fill:#92221E;}
	.st12{fill:#202527;}
	.st13{fill:#DA9F2A;}
</style>
<g id="XMLID_2_">
	<path id="XMLID_186_" class="st0" d="M540.3,408.1c-1.4,3.2-2.4,6.6-5.8,8.7c-6.7,4-18.4,1.9-22-4.3c-1.1-1.9-1.5-3.9-1.5-6.1
		c0-7.8,0-15.7,0-23.5c0-7.3,2.4-10.7,9.3-13c0.6-0.2,1.5,0.1,1.7-0.9c1.4,0,2.9,0,4.3,0c0.6,1.1,1.6,0.5,2.4,0.6
		c5.6,0.8,10.7,3.9,11.1,11c0,8.5-0.1,17-0.1,25.4c0,0.6-0.2,1.2,0.6,1.5C540.3,407.7,540.3,407.9,540.3,408.1z M521.3,394.1
		c0,3.8,0.1,7.5,0,11.3c-0.1,2.7,1.4,3.8,3.9,4c2.4,0.1,4.2-0.6,4.2-3.5c0-7.8,0-15.6,0-23.5c0-2.9-1.8-3.6-4.2-3.5
		c-2.5,0.1-3.9,1.2-3.9,4C521.4,386.5,521.3,390.3,521.3,394.1z"/>
	<path id="XMLID_183_" class="st1" d="M331.9,369c1.5,0.6,3.1,1.1,4.6,1.7c4.5,1.8,6.9,5.2,7,10c0.1,8.5,0.1,17.1,0,25.6
		c0,6.3-3.1,10.5-9.3,11.7c-5.2,1-10.5,1.3-15.2-2c-2.7-1.9-4.2-4.5-4.3-7.6c-0.4-9.6-0.4-19.1,0-28.7c0.2-5.2,4.1-8.9,10.1-10.1
		c0.6-0.1,1.3,0.2,1.5-0.6C328.2,369,330,369,331.9,369z M333.2,382.5c-0.2-2.9-2.1-3.7-4.6-3.6c-2.6,0.2-3.5,1.7-3.5,4.3
		c0.1,7.3,0.1,14.6,0,21.9c0,2.6,1,4.1,3.6,4.3c2.5,0.2,4.3-0.8,4.5-3.7c0.8-0.9,0.5-1.9,0.5-2.9c0-5.5,0-11,0-16.5
		C333.7,385,334.1,383.6,333.2,382.5z"/>
	<path id="XMLID_180_" class="st1" d="M270.2,408.3c0.2,4.7-3.8,9.2-9.8,10.2c-2.9,0.5-5.9,0.4-8.8,0c-5.9-0.9-10-5.5-10.1-11.5
		c-0.1-8.5-0.1-17.1,0-25.6c0.1-6.1,3.7-10.1,10-11.6c0.5-0.1,1.3,0.2,1.5-0.6c1.8,0,3.7,0,5.5,0c1.8,0.6,3.6,1.1,5.3,1.8
		c3.9,1.7,6.3,4.6,6.4,9C270.2,389.3,270.2,398.8,270.2,408.3z M251.9,393.7c0,3.8,0,7.5,0,11.3c0,2.8,1.4,4.1,4,4.3
		c2.7,0.2,4.2-1.3,4.3-4c0.1-7.5,0.1-15,0-22.5c0-2.7-1.5-4.1-4.2-4c-2.7,0.1-4.1,1.5-4,4.2C251.9,386.6,251.9,390.2,251.9,393.7z"
		/>
	<path id="XMLID_177_" class="st2" d="M111.9,369c1.8,0.5,3.6,0.9,5.3,1.5c4.7,1.7,7.5,5.6,7.5,10.6c0.1,8.4,0.1,16.9,0,25.3
		c-0.1,6.8-4.3,11.4-11.1,12c-2.4,0.2-4.9,0.3-7.3-0.1C99.4,417.1,96,413,96,405.9c-0.1-7.5,0.1-15.1-0.1-22.6
		c-0.2-6.7,2.5-11.7,9.6-13.5c0.5-0.1,1.3,0,1.4-0.9C108.6,369,110.2,369,111.9,369z M106.2,393.8
		C106.2,393.8,106.2,393.8,106.2,393.8c0,3.9,0,7.7,0,11.6c0,2.6,1.3,3.9,3.9,3.9c2.4,0,4.3-0.7,4.3-3.5c0.1-7.8,0.1-15.7,0-23.5
		c0-2.9-1.9-3.7-4.5-3.6c-2.7,0.1-3.8,1.6-3.8,4.1C106.2,386.5,106.2,390.2,106.2,393.8z"/>
	<path id="XMLID_176_" class="st3" d="M225.5,474.1c-2.8-1.2-5.1-2.8-5.5-6.1c-0.1-0.6-0.6-1.7,0.8-1.9c1.1-0.1,1.3,0.6,1.6,1.4
		c1.2,4,3.2,5.1,7.2,4.1c2-0.5,3.1-1.8,3.2-3.8c0.1-2.2-0.7-3.8-2.9-4.5c-1.8-0.6-3.7-0.8-5.5-1.4c-3.2-1.1-4.5-3.1-4.1-6.2
		c0.4-3.1,2.5-5.2,5.5-5.5c5.4-0.6,8.8,1.7,8.9,6.1c0,0.7,0.6,1.7-0.9,1.8c-1.3,0.1-1.1-0.9-1.3-1.6c-1-3.8-2.3-4.8-5.9-4.5
		c-2.1,0.2-3.7,1.2-4.1,3.4c-0.4,2.3,0.5,4,2.9,4.6c1.4,0.4,2.7,0.8,4.1,1.1c3.9,0.9,5.6,2.7,5.6,6c0,3.5-1.5,5.3-5.3,6.3
		c-0.2,0.1-0.4,0.4-0.6,0.5C228,474.1,226.8,474.1,225.5,474.1z"/>
	<path id="XMLID_173_" class="st3" d="M328.2,474.1c-0.5-2.1,1-2.2,2.4-2.5c4.3-0.8,6.7-3.6,8.2-7.8c-1.7,0.1-2.6,1.1-4,1.2
		c-4.6,0.3-7.7-2.3-7.9-6.8c-0.3-4.6,2.3-7.8,6.4-8c5-0.3,8.1,2.4,8.3,7.1c0.2,6.3-1.2,11.9-7.3,15.2c-1.4,0.7-2.9,1.1-4.4,1.6
		C329.4,474.1,328.8,474.1,328.2,474.1z M334.3,452.1c-3.1,0-5.1,2.1-5.1,5.5c0,3.4,1.9,5.5,5,5.5c3.2,0,5.6-2.1,5.5-5
		C339.7,454.6,337.3,452.1,334.3,452.1z"/>
	<path id="XMLID_172_" class="st3" d="M272,474.1c-4.4-2.1-5.6-5.8-5.5-10.3c0-2.8-0.2-5.7,0.7-8.5c1.2-3.9,4.2-5.7,8.8-5.1
		c3.3,0.4,5.2,2.6,5.5,6.5c0.1,0.8,0.8,1.9-0.8,2.1c-1.6,0.2-1.1-1-1.2-1.8c-0.5-3.7-2.1-5.2-5.5-4.9c-2.3,0.1-3.7,1.4-4.3,3.6
		c-1.2,4.2-1.2,8.4-0.1,12.6c0.7,2.7,2.7,3.8,5.2,3.7c2.6-0.1,4.4-1.5,4.7-4.2c0.1-1,0-1.9,1.4-1.6c1.4,0.3,0.6,1.2,0.6,1.9
		c0,3.8-2.7,5-5.6,6C274.4,474.1,273.2,474.1,272,474.1z"/>
	<path id="XMLID_171_" class="st4" d="M239.6,474.1c0-7.2-0.1-14.4,0-21.6c0-0.8-0.8-2.3,1-2.2c1.6,0,1.1,1.4,1.1,2.3
		c0,6.3-0.1,12.6,0.1,18.8c0,1.5-0.6,2.1-1.6,2.7C240,474.1,239.8,474.1,239.6,474.1z"/>
	<path id="XMLID_170_" class="st5" d="M539.7,380.5c-0.4-7.1-5.5-10.2-11.1-11c-0.8-0.1-1.8,0.5-2.4-0.6c4.2,0,8.4,0.1,12.5,0
		c1.3,0,1.6,0.2,1.6,1.6c-0.1,3.4,0,6.7,0,10.1C540.1,380.6,539.9,380.5,539.7,380.5z"/>
	<path id="XMLID_169_" class="st6" d="M56.2,370.2c0.2,0,0.5,0,0.7,0c0,15.9,0,31.7,0,47.6c-0.2,0-0.5,0-0.7,0
		C56.2,402,56.2,386.1,56.2,370.2z"/>
	<path id="XMLID_168_" class="st7" d="M539.7,380.5c0.2,0,0.4,0,0.5,0.1c0,9,0,17.9,0,26.9c-0.8-0.3-0.6-0.9-0.6-1.5
		C539.7,397.5,539.7,389,539.7,380.5z"/>
	<path id="XMLID_167_" class="st8" d="M323.3,473.4c0,0.2,0,0.4,0,0.7c-4.7,0-9.4,0-14.1,0c0-0.2,0-0.4,0-0.6
		C313.9,473.5,318.6,473.5,323.3,473.4z"/>
	<path id="XMLID_166_" class="st8" d="M364.3,474.1c0-0.2,0-0.4,0-0.6c4.7,0,9.4,0,14.1,0c0,0.2,0,0.4,0,0.6
		C373.6,474.1,368.9,474.1,364.3,474.1z"/>
	<path id="XMLID_165_" class="st5" d="M298.8,473.4c0,0.2,0,0.4,0,0.7c-4.3,0-8.6,0-12.8,0c0-0.2,0-0.4,0-0.7
		C290.3,473.4,294.6,473.4,298.8,473.4z"/>
	<path id="XMLID_164_" class="st0" d="M377.4,391c0.6,8.3,0.9,16.5,0.8,24.8c0,1.8-0.6,2.3-2.3,2.1c-2.6-0.2-6,1.1-7.6-0.5
		c-1.6-1.4-0.4-4.8-0.4-7.3c0-12.3,0-24.6-0.1-37c0-2.2,0.3-3.1,2.9-3.1c7.5,0.2,7.4,0.1,10.1,7.2c2.5,6.7,5.2,13.4,7.9,20.4
		c-0.3-8.5-0.8-16.6-0.7-24.7c0-2.2,0.4-3.1,2.8-2.9c2.4,0.3,5.7-0.8,7.1,0.4c1.7,1.4,0.5,4.8,0.5,7.3c0.1,12.5,0,25,0.1,37.6
		c0,1.9-0.4,2.6-2.4,2.6c-7.5,0-7.5,0.1-10.3-6.9c-2.4-6.1-4.6-12.2-6.9-18.2C378.6,392.1,378.6,391.2,377.4,391z"/>
	<path id="XMLID_161_" class="st9" d="M306.6,391.6c-0.2,3.2-1.4,6-4.2,7.7c-1.2,0.8-1.1,1.2-0.6,2.4c2,4.7,3.9,9.5,5.9,14.3
		c0.7,1.6,0.5,2-1.3,2.1c-9.2,0.4-9.2,0.4-12.4-8c-0.9-2.5-1.8-5-2.8-7.4c-0.3-0.6-0.1-1.9-1.3-1.7c-1.2,0.2-0.7,1.3-0.8,2
		c0,4.2-0.1,8.4,0,12.5c0.1,1.9-0.4,2.6-2.5,2.6c-7.9,0-7.9,0.1-7.9-7.6c0-12.5,0-25.1,0-37.6c0-2.1,0.6-2.8,2.7-2.7
		c4.9,0.2,9.8,0.1,14.7,0.1c5.3,0.1,10.2,3.2,10.4,9.2C305.9,383.5,306,387.5,306.6,391.6z M289.2,385.7c0,1,0,2,0,3
		c0,4,0.2,4.2,4.3,3.7c2-0.2,2.9-1.3,2.9-3.2c0-2.1,0-4.2,0-6.4c0-3.4-0.8-3.9-4.4-4.2c-3.5-0.3-2.8,2-2.8,3.9
		C289.2,383.7,289.2,384.7,289.2,385.7z"/>
	<path id="XMLID_158_" class="st10" d="M504.9,418c-3.6,0-6.8-0.1-10,0c-1.6,0.1-1.8-1-2.2-1.9c-1.7-4.4-3.3-8.8-4.9-13.3
		c-0.3-0.8-0.3-1.8-1.9-2.1c0,4.8-0.1,9.5,0.1,14.2c0.1,2.3-0.4,3.3-2.9,3c-2.4-0.3-5.6,0.7-7-0.5c-1.5-1.3-0.5-4.6-0.5-7
		c0-12.5,0-25-0.1-37.5c0-2.1,0.3-3,2.7-2.9c4.6,0.2,9.2,0.2,13.7,0.1c6.6-0.1,11.8,4,11.2,11.6c-0.3,4.2,0.6,8.5-0.7,12.7
		c-0.6,1.8-1.4,3.6-3.3,4.5c-1.8,0.8-1.5,1.9-0.9,3.4C500.4,407.4,502.6,412.6,504.9,418z M485.8,385.6c0,1.7,0,3.4,0,5.2
		c0,0.7-0.2,1.4,0.7,1.8c2.9,1.2,6-0.7,6-3.9c0-1.9,0-3.9,0-5.8c0-3.5-0.5-3.8-4-4.1c-3.5-0.3-2.7,1.9-2.7,3.8
		C485.8,383.6,485.8,384.6,485.8,385.6z"/>
	<path id="XMLID_157_" class="st11" d="M56.9,417.9c0-15.9,0-31.7,0-47.6c2.6,0,5.3,0.1,7.9-0.1c1.6-0.1,2.1,0.5,2,2.1
		c-0.1,5.1,0.1,10.2-0.1,15.3c0,1.9,0.6,2.4,2.4,2.4c7.6,0.1,7.6,0.1,7.6-7.5c0-3.4,0.1-6.7,0-10.1c-0.1-1.8,0.6-2.3,2.2-2.1
		c2.6,0.2,6.1-1.1,7.6,0.6c1.3,1.4,0.4,4.8,0.4,7.4c0,12.3,0,24.6,0.1,36.9c0,2.1-0.3,3-2.7,2.9c-7.5-0.1-7.5,0-7.5-7.5
		c0-3.2-0.1-6.3,0-9.5c0-1.6-0.5-2-2.1-2.1c-7.9-0.3-7.9-0.3-7.9,7.5c0,3.3-0.1,6.5,0,9.8c0,1.3-0.4,1.8-1.7,1.7
		C62.4,417.8,59.7,417.9,56.9,417.9z"/>
	<path id="XMLID_156_" class="st10" d="M465.1,381c-3.6-1.8-7.1-1.7-10.7-1.6c-3.3,0.1-4.6,1.4-4.6,4.7c0,6.9,0,13.8,0,20.8
		c0,3.4,3.6,5.5,6.6,3.9c1-0.5,0.7-1.4,0.7-2.1c0-4.1,0.1-8.1,0-12.2c-0.1-1.8,0.5-2.2,2.2-2.2c7.8-0.1,7.8-0.2,7.8,7.6
		c0,4.4-0.1,8.8,0.1,13.1c0.1,2.2-0.7,3.1-2.7,3.9c-5.5,2-11.1,2.3-16.7,0.9c-5.3-1.3-8.3-5.3-8.3-10.8c-0.1-8,0.1-16.1-0.1-24.1
		c-0.2-7.5,4-10.8,9.7-12.4c4.7-1.3,9.4-1,14.1,0c1.3,0.3,2.2,0.8,2.1,2.6C464.9,375.5,465.1,378,465.1,381z"/>
	<path id="XMLID_155_" class="st0" d="M407.7,393.8c0-7,0-14,0-21.1c0-1.8,0.2-2.7,2.4-2.7c6.6,0.2,13.2,0.1,19.9,0
		c1.7,0,2.2,0.5,2.2,2.2c0.1,6.6,0.1,6.6-6.3,6.6c-0.2,0-0.4,0-0.6,0c-2.3,0.2-5.6-1.1-6.7,0.6c-1.5,2.3-0.3,5.7-0.5,8.6
		c-0.1,1.3,1,1.1,1.7,1.1c2.7,0,5.5-0.2,8.2,0.1c4.7,0.5,1.4,4.2,2.2,6.3c0.6,1.6,0.3,3.1-2.3,2.9c-2.6-0.3-5.3,0-7.9-0.1
		c-1.4-0.1-2,0.4-1.9,1.9c0.1,2.3,0.1,4.7,0,7c-0.1,1.6,0.5,2.1,2.1,2.1c3.4-0.1,6.7,0,10.1-0.1c1.4,0,1.9,0.4,1.9,1.8
		c0.3,6.9,0.3,6.9-6.6,6.9c-5,0-10-0.1-15,0.1c-2.2,0.1-3-0.4-2.9-2.8C407.8,408.1,407.7,401,407.7,393.8z"/>
	<path id="XMLID_154_" class="st2" d="M165,393.8c0-7,0.1-14.1,0-21.1c0-1.9,0.3-2.6,2.4-2.6c6.5,0.2,13,0.1,19.5,0
		c1.8,0,2.4,0.4,2.4,2.3c0,6.4,0.1,6.3-6.3,6.4c-2.4,0-5.6-0.8-7.1,0.4c-1.7,1.5-0.3,4.8-0.6,7.3c-0.3,2.2,0.5,2.8,2.6,2.7
		c2.4-0.2,4.9,0,7.3-0.1c1.6-0.1,2,0.5,2.1,2.1c0.3,7,0.3,7-6.7,7c-5.4,0-5.4,0-5.4,5.4c0,5.6,0,5.6,5.8,5.6c0.6,0,1.2,0,1.8,0
		c6.9,0,6.8,0,6.4,6.9c-0.1,1.3-0.4,1.8-1.7,1.8c-7,0-14-0.1-21.1,0c-1.9,0-1.5-1.1-1.5-2.2C165,408.4,165,401.1,165,393.8z"/>
	<path id="XMLID_153_" class="st11" d="M139.3,398.4c0-5.7-0.1-11.4,0-17.1c0-2.1-0.6-2.6-2.6-2.6c-2,0-4.9,1.1-5.7-0.5
		c-1-1.8-0.2-4.6-0.3-6.9c0-1.2,0.7-1.2,1.6-1.2c8.1,0,16.3,0,24.4,0c1.1,0,1.7,0.3,1.6,1.5c-0.1,1.8-0.1,3.7,0,5.5
		c0.1,1.4-0.5,1.7-1.8,1.7c-2.2,0.1-5.3-1-6.4,0.5c-1.1,1.6-0.4,4.5-0.5,6.8c0,9.8-0.1,19.5,0,29.3c0,1.9-0.4,2.8-2.5,2.5
		c-2.6-0.3-6.1,1.1-7.6-0.6c-1.3-1.4-0.4-4.8-0.4-7.3C139.3,406.2,139.3,402.3,139.3,398.4z"/>
	<path id="XMLID_152_" class="st2" d="M196.8,393.8c0-7.1,0-14.2,0-21.4c0-1.7,0.4-2.2,2.2-2.2c8.2-0.1,8.2-0.2,8.2,7.8
		c0,9.4,0.1,18.7-0.1,28.1c-0.1,2.9,0.9,3.6,3.5,3.4c2.5-0.2,5.1,0,7.6-0.1c1.5-0.1,1.8,0.5,1.9,1.9c0.3,6.7,0.3,6.7-6.2,6.7
		c-4.9,0-9.8-0.1-14.7,0.1c-2.1,0.1-2.5-0.6-2.5-2.6C196.8,408.2,196.8,401,196.8,393.8z"/>
	<path id="XMLID_151_" class="st12" d="M259.9,468.5c0-5.1,0-10.1,0-15.2c0-1-0.7-2.9,1.1-2.9c1.8,0.1,1,1.9,1,3
		c0.1,5.8,0.1,11.6,0,17.4c0,0.9,0.8,2.3-0.9,2.7c-1.6,0.3-2-0.9-2.6-2c-3.1-5.5-6.2-11-9.7-17.3c0,6.3,0,11.7,0,17.1
		c0,0.8,0.8,2.3-1,2.2c-1.5-0.1-0.8-1.4-0.8-2.2c-0.1-6.1-0.1-12.2,0-18.3c0-0.9-0.8-2.3,0.9-2.7c1.5-0.3,1.8,0.9,2.3,1.9
		c3.1,5.5,6.2,11,9.3,16.5C259.5,468.6,259.7,468.5,259.9,468.5z"/>
	<path id="XMLID_150_" class="st3" d="M378.3,473.5c-4.7,0-9.4,0-14.1,0c-0.5-1.4,0.5-2,1.3-2.8c3.1-3.3,6.3-6.6,9.4-10
		c1.6-1.8,2.3-3.9,0.9-6.2c-1.3-2.2-3.5-2.6-5.8-2.3c-2.5,0.3-3.2,2.2-3.8,4.2c-0.2,0.8,0.3,2.1-1.3,1.8c-1.5-0.3-0.7-1.5-0.7-2.2
		c0-2.9,1.7-4.9,4.3-5.5c3.1-0.7,6.4-0.8,8.7,2.1c1.9,2.4,1.7,5.2,0.3,7.7c-1,1.8-2.7,3.3-4.1,4.9c-1.8,2-3.7,4-6.1,6.5
		c3.6,0,6.5,0,9.3,0C378.2,471.6,378.9,471.9,378.3,473.5z"/>
	<path id="XMLID_149_" class="st3" d="M298.8,473.4c-4.3,0-8.5,0-12.8,0c0-7,0-14-0.1-21.1c0-1.5,0.2-2.2,1.9-2.1
		c2.9,0.1,5.9,0,8.9,0.1c0.8,0,2.1-0.3,2,1.1c0,1.3-1.2,0.7-1.9,0.8c-1,0.1-2,0-3.1,0c-6.1,0-7.1,1.3-6,7.4c0.2,1.2,0.8,1.2,1.7,1.2
		c1.8,0,3.7,0,5.5,0c0.8,0,2.1-0.5,2.1,1c-0.1,1.4-1.4,0.8-2.2,0.8c-1.7,0.1-3.5,0.1-5.2,0c-1.3,0-1.9,0.4-1.8,1.8
		c0.1,1.8,0.1,3.7,0,5.5c-0.1,1.4,0.4,1.8,1.7,1.7c2.5-0.1,5.1,0.1,7.6-0.1C298.7,471.6,299,472.2,298.8,473.4z"/>
	<path id="XMLID_148_" class="st3" d="M353.5,450.3c0.3,0,0.6,0,0.9,0c6.8,0,6.9,0,4.3,6.2c-2,5-4.1,10-6.2,15
		c-0.5,1.1-0.9,2.7-2.4,1.9c-1.2-0.6,0.1-1.7,0.4-2.5c2.1-5.4,4.3-10.8,6.6-16.2c0.9-2,0.6-2.8-1.7-2.5c-0.7,0.1-1.4,0-2.1,0
		c-5.1,0-5.1,0-5.5,5c-0.1,0.6,0.3,1.5-0.8,1.6c-1.4,0.1-1-1-1-1.7c-0.4-6.8-0.4-6.8,6.4-6.8C352.7,450.3,353.1,450.3,353.5,450.3z"
		/>
	<path id="XMLID_147_" class="st0" d="M323.3,473.4c-4.7,0-9.4,0-14,0.1c-0.6-2.3,1.1-2,2.3-1.8c3.2,0.5,3.9-0.8,3.7-3.8
		c-0.3-4.1-0.1-8.3-0.1-12.5c0-1.6-0.4-2.1-1.9-1c-0.9,0.7-1.8,1.3-2.8,1.9c-0.5,0.3-1,0.5-1.5-0.2c-0.5-0.8-0.1-1.1,0.4-1.4
		c2-1.4,3.9-2.9,6-4.1c1.8-1,1.7,0.4,1.7,1.6c0,5.4,0.2,10.8-0.1,16.1c-0.1,2.7,0.6,3.8,3.4,3.4
		C321.7,471.6,323.7,470.8,323.3,473.4z"/>
	<path id="XMLID_146_" class="st13" d="M270.2,408.3c0-9.5,0-18.9,0-28.4c0.1,0.2,0.3,0.3,0.3,0.5c0.4,9.1,0.4,18.2,0,27.4
		C270.5,407.9,270.3,408.1,270.2,408.3z"/>
	<path id="XMLID_145_" class="st13" d="M306.6,391.6c-0.6-4-0.7-8.1,0-12.1C306.9,383.5,307,387.5,306.6,391.6z"/>
	<path id="XMLID_142_" class="st13" d="M333.2,405.7c0-7.7,0-15.5,0-23.2c0.9,1.2,0.5,2.5,0.5,3.8c0.1,5.5,0,11,0,16.5
		C333.7,403.7,334,404.8,333.2,405.7z"/>
</g>
</svg>
