<?xml version="1.0" encoding="utf-8"?>
<!-- Generator: Adobe Illustrator 24.1.0, SVG Export Plug-In . SVG Version: 6.00 Build 0)  -->
<svg version="1.1" id="Capa_1" xmlns="http://www.w3.org/2000/svg" xmlns:xlink="http://www.w3.org/1999/xlink" x="0px" y="0px"
	 viewBox="0 0 239.16 204.69" style="enable-background:new 0 0 239.16 204.69;" xml:space="preserve">
<style type="text/css">
	.st0{fill:#FFFFFF;}
	.st1{fill:#D07312;}
	.st2{fill:#F5F4F5;}
	.st3{fill:#1D612C;}
</style>
<g>
	<path class="st0" d="M112.51,163.12c0.14,0.34-0.27,1.12,0.25,1.13c0.68,0.02,0.16-0.75,0.33-1.13c0.01-0.03,0-0.06,0-0.09
		c-0.03-0.41,0.14-0.73,0.56-0.72c0.45,0.01,0.34,0.42,0.42,0.72c0.12,0.43-0.41,1.22,0.32,1.23c0.5,0.01,0.22-0.79,0.23-1.21
		c0.04-1.18,0.01-1.23-1.72-1.2c-0.82,0.01-0.18,0.76-0.38,1.11C112.5,162.98,112.51,163.02,112.51,163.12z"/>
	<path class="st1" d="M162.36,42.68c0.93,0.66,1.25,1.54,1.18,2.69c-0.09,1.41,0.01,2.82-0.04,4.23c-0.02,0.63,0.15,0.79,0.78,0.79
		c4.1-0.03,8.21-0.02,12.31-0.01c1.67,0,2.31,0.65,2.31,2.32c0,34.38,0,68.76,0,103.14c0,1.66-0.65,2.31-2.32,2.31
		c-36.94,0-73.89,0-110.83,0c-1.67,0-2.32-0.64-2.32-2.32c0-34.38,0-68.76,0-103.14c0-1.67,0.64-2.32,2.31-2.32
		c4.07,0,8.15-0.02,12.22,0.02c0.73,0.01,0.92-0.17,0.88-0.89c-0.06-1.38,0.05-2.76-0.04-4.13c-0.08-1.15,0.25-2.03,1.18-2.69
		c3.08,0,6.16,0,9.24,0c0.92,0.66,1.25,1.54,1.18,2.69c-0.09,1.43,0,2.88-0.03,4.32c-0.01,0.51,0.09,0.71,0.66,0.71
		c7.9-0.02,15.81-0.02,23.71,0c0.57,0,0.68-0.19,0.66-0.71c-0.03-1.44,0.06-2.88-0.03-4.32c-0.07-1.15,0.25-2.02,1.18-2.69
		c3.08,0,6.16,0,9.24,0c0.93,0.66,1.25,1.55,1.18,2.69c-0.09,1.47,0,2.95-0.03,4.42c-0.01,0.46,0.13,0.59,0.59,0.59
		c7.95-0.01,15.91-0.01,23.86,0c0.46,0,0.6-0.13,0.59-0.59c-0.03-1.47,0.06-2.96-0.03-4.42c-0.07-1.15,0.24-2.03,1.18-2.69
		C156.2,42.68,159.28,42.68,162.36,42.68z M121.17,85.03c-17.61,0-35.22,0.01-52.83-0.02c-0.87,0-1.08,0.21-1.08,1.08
		c0.03,22.39,0.03,44.78,0,67.17c0,0.87,0.21,1.08,1.08,1.08c35.22-0.02,70.43-0.02,105.65,0c0.87,0,1.08-0.21,1.08-1.08
		c-0.03-22.39-0.03-44.78,0-67.17c0-0.87-0.21-1.08-1.08-1.08C156.39,85.03,138.78,85.03,121.17,85.03z M121.17,81.18
		c17.64,0,35.28-0.01,52.92,0.02c0.79,0,0.99-0.17,0.99-0.98c-0.03-8.37-0.03-16.74,0-25.11c0-0.71-0.15-0.9-0.88-0.89
		c-3.3,0.05-6.61,0.04-9.91,0.01c-0.62-0.01-0.8,0.14-0.79,0.78c0.04,2.92,0.02,5.84,0.01,8.76c0,1.27-0.75,2.02-2.03,2.02
		c-2.47,0.01-4.94,0.01-7.41,0c-1.39,0-2.1-0.73-2.1-2.14c0-2.85-0.02-5.71,0.01-8.56c0.01-0.64-0.11-0.86-0.81-0.86
		c-7.79,0.03-15.59,0.03-23.38,0c-0.78,0-0.86,0.26-0.85,0.92c0.03,2.85,0.02,5.71,0.01,8.56c0,1.34-0.73,2.08-2.06,2.09
		c-2.44,0.01-4.87,0.01-7.31,0c-1.47,0-2.16-0.7-2.17-2.18c0-2.85-0.01-5.71,0.01-8.56c0-0.56-0.05-0.83-0.75-0.83
		c-7.86,0.03-15.72,0.03-23.57,0c-0.62,0-0.73,0.18-0.72,0.75c0.03,2.82,0.01,5.64,0.01,8.47c0,1.68-0.65,2.34-2.29,2.34
		c-2.34,0-4.68,0-7.02,0c-1.54,0-2.23-0.68-2.23-2.21c0-2.85-0.02-5.71,0.01-8.56c0.01-0.63-0.16-0.79-0.79-0.79
		c-3.27,0.03-6.54,0.05-9.81-0.01c-0.8-0.01-0.99,0.19-0.98,0.99c0.03,8.31,0.04,16.61,0,24.92c0,0.88,0.22,1.08,1.08,1.08
		C85.96,81.17,103.56,81.18,121.17,81.18z M155.82,54.23c0,1.54-0.02,3.08,0.01,4.62c0.02,1.01-0.44,2.37,0.19,2.94
		c0.56,0.5,1.89,0.09,2.88,0.16c0.64,0.04,0.79-0.16,0.78-0.79c-0.03-3.85,0-7.7-0.02-11.54c-0.01-1.01,0.45-2.41-0.19-2.93
		c-0.62-0.51-1.96-0.11-2.98-0.16c-0.55-0.03-0.69,0.15-0.69,0.69C155.83,49.55,155.82,51.89,155.82,54.23z M119.25,54.23
		c0,1.54-0.02,3.08,0.01,4.62c0.02,1.01-0.44,2.37,0.19,2.94c0.56,0.5,1.89,0.09,2.88,0.16c0.63,0.04,0.79-0.16,0.79-0.79
		c-0.03-3.85,0-7.7-0.02-11.54c-0.01-1.01,0.45-2.41-0.19-2.93c-0.62-0.51-1.96-0.11-2.98-0.16c-0.55-0.03-0.69,0.15-0.69,0.69
		C119.27,49.55,119.25,51.89,119.25,54.23z M82.68,54.14c0,1.57-0.02,3.14,0.01,4.71c0.02,1.01-0.44,2.37,0.19,2.94
		c0.55,0.5,1.89,0.09,2.88,0.16c0.63,0.04,0.79-0.16,0.79-0.78c-0.03-3.85,0-7.7-0.02-11.54c-0.01-1.01,0.45-2.41-0.19-2.93
		c-0.61-0.51-1.96-0.11-2.98-0.16c-0.55-0.03-0.69,0.14-0.69,0.69C82.7,49.52,82.68,51.83,82.68,54.14z"/>
	<path class="st0" d="M116.56,42.68c-0.93,0.66-1.25,1.54-1.18,2.69c0.09,1.43,0,2.88,0.03,4.32c0.01,0.51-0.09,0.71-0.66,0.71
		c-7.9-0.02-15.81-0.02-23.71,0c-0.57,0-0.68-0.19-0.66-0.71c0.03-1.44-0.06-2.88,0.03-4.32c0.07-1.15-0.25-2.02-1.18-2.69
		C98.34,42.68,107.45,42.68,116.56,42.68z"/>
	<path class="st0" d="M153.12,42.68c-0.93,0.66-1.25,1.54-1.18,2.69c0.09,1.47,0.01,2.95,0.03,4.42c0.01,0.46-0.12,0.59-0.59,0.59
		c-7.95-0.01-15.91-0.01-23.86,0c-0.46,0-0.6-0.13-0.59-0.59c0.03-1.47-0.06-2.96,0.03-4.42c0.07-1.15-0.25-2.03-1.18-2.69
		C134.9,42.68,144.01,42.68,153.12,42.68z"/>
	<path class="st2" d="M79.85,167.29c0.44,0.04,0.68,0.28,0.71,0.72c0.03,0.48-0.19,0.84-0.67,0.85c-0.43,0.01-0.66-0.31-0.67-0.75
		C79.21,167.66,79.42,167.39,79.85,167.29z"/>
	<path class="st1" d="M155.91,121.59c2.47,0,4.94,0,7.4,0c1.41,0,2.12,0.71,2.12,2.12c0,5,0,10,0,15c0,1.4-0.72,2.12-2.13,2.12
		c-5,0-10,0-15,0c-1.41,0-2.11-0.71-2.12-2.13c0-5,0-10,0-15c0-1.41,0.71-2.11,2.12-2.12C150.85,121.59,153.38,121.59,155.91,121.59
		z M155.82,136.99c1.7,0,3.4-0.02,5.1,0.01c0.54,0.01,0.69-0.14,0.69-0.69c-0.02-3.4-0.02-6.8,0-10.2c0-0.54-0.14-0.69-0.69-0.69
		c-3.4,0.02-6.8,0.02-10.2,0c-0.54,0-0.69,0.14-0.69,0.69c0.02,3.4,0.02,6.8,0,10.2c0,0.54,0.14,0.7,0.69,0.69
		C152.42,136.97,154.12,136.99,155.82,136.99z"/>
	<path class="st1" d="M132.62,140.84c-2.47,0-4.94,0-7.4,0c-1.41,0-2.12-0.71-2.12-2.12c0-5,0-10,0-15c0-1.41,0.71-2.12,2.12-2.12
		c5,0,10,0,15,0c1.41,0,2.12,0.71,2.12,2.12c0,5,0,10,0,15c0,1.41-0.72,2.12-2.12,2.12C137.69,140.84,135.15,140.84,132.62,140.84z
		 M138.49,131.23c0-1.7-0.02-3.4,0.01-5.1c0.01-0.53-0.12-0.7-0.68-0.7c-3.4,0.03-6.8,0.02-10.2,0c-0.53,0-0.7,0.12-0.7,0.68
		c0.03,3.4,0.02,6.8,0,10.2c0,0.53,0.12,0.7,0.68,0.7c3.4-0.03,6.8-0.02,10.2,0c0.53,0,0.71-0.11,0.7-0.68
		C138.47,134.63,138.49,132.93,138.49,131.23z"/>
	<path class="st1" d="M96.16,100.46c0,2.5,0.01,5,0,7.5c0,1.34-0.73,2.08-2.06,2.08c-5.03,0.01-10.06,0.01-15.1,0
		c-1.35,0-2.08-0.73-2.08-2.06c-0.01-5.03-0.01-10.06,0-15.1c0-1.35,0.72-2.08,2.06-2.08c5.03-0.01,10.06-0.01,15.1,0
		c1.35,0,2.08,0.72,2.08,2.06C96.16,95.4,96.16,97.93,96.16,100.46z M86.44,106.2c1.73,0,3.46-0.02,5.19,0.01
		c0.56,0.01,0.68-0.16,0.68-0.7c-0.02-3.4-0.02-6.8,0-10.2c0-0.56-0.16-0.68-0.7-0.68c-3.4,0.02-6.8,0.02-10.2,0
		c-0.56,0-0.68,0.16-0.68,0.7c0.02,3.4,0.02,6.8,0,10.2c0,0.56,0.16,0.69,0.7,0.68C83.11,106.18,84.78,106.2,86.44,106.2z"/>
	<path class="st1" d="M109.69,90.8c2.47,0,4.94,0,7.4,0c1.46,0,2.15,0.7,2.15,2.19c0,4.97,0,9.94,0,14.9c0,1.46-0.71,2.15-2.19,2.15
		c-4.97,0-9.94,0-14.9,0c-1.46,0-2.15-0.7-2.15-2.19c0-4.97,0-9.94,0-14.9c0-1.46,0.7-2.15,2.19-2.15
		C104.69,90.8,107.19,90.8,109.69,90.8z M109.63,94.65c-1.7,0-3.4,0.02-5.1-0.01c-0.54-0.01-0.69,0.14-0.69,0.69
		c0.02,3.4,0.02,6.8,0,10.2c0,0.54,0.14,0.69,0.69,0.69c3.4-0.02,6.8-0.02,10.2,0c0.54,0,0.69-0.14,0.69-0.69
		c-0.02-3.4-0.02-6.8,0-10.2c0-0.54-0.14-0.7-0.69-0.69C113.03,94.67,111.33,94.65,109.63,94.65z"/>
	<path class="st1" d="M123.1,100.42c0-2.5,0-5,0-7.5c0-1.41,0.71-2.11,2.12-2.12c2.28-0.01,4.55,0.02,6.83-0.01
		c0.55-0.01,0.71,0.16,0.68,0.69c-0.05,1.02,0.34,2.36-0.16,2.97c-0.53,0.63-1.92,0.15-2.93,0.19c-0.86,0.04-2.02-0.3-2.5,0.14
		c-0.57,0.5-0.17,1.68-0.18,2.57c-0.02,2.69,0.01,5.39-0.02,8.08c-0.01,0.63,0.17,0.79,0.79,0.78c3.94-0.03,7.89,0.01,11.83-0.03
		c0.72-0.01,0.96,0.16,0.88,0.89c-0.11,0.97,0.41,2.29-0.21,2.84c-0.54,0.48-1.83,0.14-2.78,0.14c-4.04,0-8.08,0-12.12,0
		c-1.54,0-2.22-0.68-2.22-2.22C123.1,105.36,123.1,102.89,123.1,100.42z"/>
	<path class="st1" d="M146.19,100.35c0-2.44,0-4.87,0-7.31c0-1.55,0.67-2.24,2.19-2.24c2.21,0,4.42,0.02,6.64-0.01
		c0.59-0.01,0.87,0.08,0.81,0.76c-0.07,0.76-0.07,1.54,0,2.31c0.07,0.72-0.22,0.83-0.86,0.81c-1.34-0.05-2.69,0.02-4.04-0.03
		c-0.68-0.03-0.92,0.09-0.91,0.86c0.05,3.3,0.05,6.6,0,9.91c-0.01,0.71,0.22,0.82,0.86,0.81c3.91-0.03,7.82,0.01,11.73-0.04
		c0.79-0.01,0.97,0.24,0.91,0.96c-0.06,0.73-0.06,1.48,0,2.21c0.06,0.63-0.2,0.72-0.76,0.72c-4.84-0.02-9.68-0.01-14.52-0.01
		c-1.34,0-2.05-0.74-2.05-2.09C146.19,105.42,146.19,102.89,146.19,100.35z"/>
	<path class="st3" d="M134.62,104.27c-0.61,0.03-1.06-0.25-1.46-0.65c-1.11-1.11-2.2-2.23-3.34-3.32c-0.36-0.35-0.38-0.56,0-0.9
		c0.66-0.6,1.3-1.23,1.9-1.9c0.37-0.41,0.59-0.3,0.9,0.04c0.5,0.54,1.07,1.02,1.55,1.57c0.38,0.43,0.61,0.35,0.97-0.02
		c1.77-1.81,3.58-3.57,5.35-5.38c0.37-0.38,0.59-0.44,0.97-0.02c0.6,0.67,1.24,1.3,1.9,1.9c0.36,0.33,0.3,0.52-0.02,0.83
		c-2.41,2.39-4.8,4.79-7.21,7.19C135.71,104.05,135.23,104.33,134.62,104.27z"/>
	<path class="st3" d="M157.77,104.27c-0.59,0.05-1.06-0.2-1.46-0.59c-1.13-1.13-2.25-2.28-3.41-3.38c-0.39-0.37-0.34-0.61,0.03-0.89
		c0.08-0.06,0.14-0.14,0.21-0.2c0.69-0.67,1.33-1.8,2.07-1.88c0.77-0.08,1.39,1.14,2.06,1.82c0.42,0.43,0.63,0.29,0.98-0.06
		c1.75-1.78,3.54-3.52,5.28-5.31c0.45-0.46,0.7-0.45,1.11,0.01c0.55,0.62,1.15,1.2,1.76,1.77c0.35,0.33,0.4,0.53,0.02,0.9
		c-2.42,2.38-4.81,4.79-7.21,7.19C158.81,104.03,158.36,104.31,157.77,104.27z"/>
	<path class="st1" d="M96.43,131.25c0,2.5,0.01,5,0,7.5c0,1.34-0.73,2.08-2.06,2.08c-5.03,0.01-10.06,0.01-15.1,0
		c-1.35,0-2.08-0.73-2.08-2.06c-0.01-5.03-0.01-10.06,0-15.1c0-1.35,0.72-2.08,2.06-2.08c5.03-0.01,10.06-0.01,15.1,0
		c1.35,0,2.08,0.72,2.08,2.06C96.43,126.19,96.43,128.72,96.43,131.25z M86.72,136.99c1.73,0,3.46-0.02,5.19,0.01
		c0.56,0.01,0.68-0.16,0.68-0.7c-0.02-3.4-0.02-6.8,0-10.2c0-0.56-0.16-0.68-0.7-0.68c-3.4,0.02-6.8,0.02-10.2,0
		c-0.56,0-0.68,0.16-0.68,0.7c0.02,3.4,0.02,6.8,0,10.2c0,0.56,0.16,0.69,0.7,0.68C83.38,136.97,85.05,136.99,86.72,136.99z"/>
	<path class="st1" d="M109.97,121.59c2.47,0,4.94,0,7.4,0c1.46,0,2.15,0.7,2.15,2.19c0,4.97,0,9.94,0,14.9
		c0,1.46-0.71,2.15-2.19,2.15c-4.97,0-9.94,0-14.9,0c-1.46,0-2.15-0.7-2.15-2.19c0-4.97,0-9.94,0-14.9c0-1.46,0.7-2.15,2.19-2.15
		C104.97,121.59,107.47,121.59,109.97,121.59z M109.9,125.44c-1.7,0-3.4,0.02-5.1-0.01c-0.54-0.01-0.69,0.14-0.69,0.69
		c0.02,3.4,0.02,6.8,0,10.2c0,0.54,0.14,0.69,0.69,0.69c3.4-0.02,6.8-0.02,10.2,0c0.54,0,0.69-0.14,0.69-0.69
		c-0.02-3.4-0.02-6.8,0-10.2c0-0.54-0.14-0.7-0.69-0.69C113.3,125.47,111.6,125.44,109.9,125.44z"/>
</g>
</svg>
